<?xml version="1.0" encoding="UTF-8" standalone="no"?>
<!-- Created with Inkscape (http://www.inkscape.org/) -->

<svg
   width="550"
   height="550"
   viewBox="0 0 145.52083 145.52084"
   version="1.1"
   id="svg27479"
   inkscape:version="1.1.1 (3bf5ae0d25, 2021-09-20)"
   sodipodi:docname="gitthub.svg"
   xmlns:inkscape="http://www.inkscape.org/namespaces/inkscape"
   xmlns:sodipodi="http://sodipodi.sourceforge.net/DTD/sodipodi-0.dtd"
   xmlns="http://www.w3.org/2000/svg"
   xmlns:svg="http://www.w3.org/2000/svg">
  <sodipodi:namedview
     id="namedview27481"
     pagecolor="#505050"
     bordercolor="#eeeeee"
     borderopacity="1"
     inkscape:pageshadow="0"
     inkscape:pageopacity="0"
     inkscape:pagecheckerboard="0"
     inkscape:document-units="mm"
     showgrid="false"
     units="px"
     inkscape:zoom="0.44275393"
     inkscape:cx="332.01286"
     inkscape:cy="380.57257"
     inkscape:window-width="1366"
     inkscape:window-height="705"
     inkscape:window-x="-8"
     inkscape:window-y="-8"
     inkscape:window-maximized="1"
     inkscape:current-layer="layer1" />
  <defs
     id="defs27476" />
  <g
     inkscape:label="Layer 1"
     inkscape:groupmode="layer"
     id="layer1">
    <g
       id="g27740">
      <path
         fill-rule="evenodd"
         clip-rule="evenodd"
         d="m 72.798847,27.229793 c -25.625105,0 -46.340515,20.868111 -46.340515,46.684805 0,20.636683 13.273073,38.105212 31.686341,44.287842 2.302123,0.46481 3.145403,-1.0045 3.145403,-2.24049 0,-1.0823 -0.07601,-4.79206 -0.07601,-8.65742 -12.890797,2.78306 -15.575199,-5.56513 -15.575199,-5.56513 -2.071632,-5.410529 -5.141146,-6.801103 -5.141146,-6.801103 -4.219155,-2.859889 0.307314,-2.859889 0.307314,-2.859889 4.68015,0.309393 7.135941,4.792096 7.135941,4.792096 4.142325,7.110306 10.817313,5.101276 13.502641,3.864386 0.383211,-3.014511 1.611598,-5.101311 2.915846,-6.260432 -10.28135,-1.082298 -21.098627,-5.101306 -21.098627,-23.033674 0,-5.101304 1.840187,-9.274908 4.756033,-12.520872 -0.460048,-1.159123 -2.071639,-5.95215 0.460996,-12.367212 0,0 3.912775,-1.236886 12.735236,4.792095 a 44.553436,44.553436 0 0 1 11.58564,-1.546131 c 3.912711,0 7.90143,0.541631 11.584626,1.546131 8.823445,-6.028981 12.736236,-4.792095 12.736236,-4.792095 2.532598,6.415062 0.920067,11.208089 0.460034,12.367212 2.992673,3.245964 4.756963,7.419568 4.756963,12.520872 0,17.932368 -10.817248,21.873576 -21.175424,23.033674 1.688392,1.468338 3.145367,4.250462 3.145367,8.656482 0,6.26043 -0.07602,11.28489 -0.07602,12.83007 0,1.23693 0.844214,2.70624 3.145405,2.24237 18.413282,-6.18455 31.686362,-23.652099 31.686362,-44.288782 0.076,-25.816694 -20.71538,-46.684805 -46.263661,-46.684805 z"
         fill="#24292f"
         id="path27571"
         style="display:inline;fill:#000000;stroke-width:0.948552" />
      <circle
         style="display:inline;fill:none;stroke:#000000;stroke-width:4.13463;stroke-miterlimit:4;stroke-dasharray:none"
         id="path27620"
         cx="72.760414"
         cy="72.760414"
         r="63.417061" />
    </g>
    <g
       id="g27746">
      <path
         fill-rule="evenodd"
         clip-rule="evenodd"
         d="m 72.798847,27.229793 c -25.625105,0 -46.340515,20.868111 -46.340515,46.684805 0,20.636683 13.273073,38.105212 31.686341,44.287842 2.302123,0.46481 3.145403,-1.0045 3.145403,-2.24049 0,-1.0823 -0.07601,-4.79206 -0.07601,-8.65742 -12.890797,2.78306 -15.575199,-5.56513 -15.575199,-5.56513 -2.071632,-5.410529 -5.141146,-6.801103 -5.141146,-6.801103 -4.219155,-2.859889 0.307314,-2.859889 0.307314,-2.859889 4.68015,0.309393 7.135941,4.792096 7.135941,4.792096 4.142325,7.110306 10.817313,5.101276 13.502641,3.864386 0.383211,-3.014511 1.611598,-5.101311 2.915846,-6.260432 -10.28135,-1.082298 -21.098627,-5.101306 -21.098627,-23.033674 0,-5.101304 1.840187,-9.274908 4.756033,-12.520872 -0.460048,-1.159123 -2.071639,-5.95215 0.460996,-12.367212 0,0 3.912775,-1.236886 12.735236,4.792095 a 44.553436,44.553436 0 0 1 11.58564,-1.546131 c 3.912711,0 7.90143,0.541631 11.584626,1.546131 8.823445,-6.028981 12.736236,-4.792095 12.736236,-4.792095 2.532598,6.415062 0.920067,11.208089 0.460034,12.367212 2.992673,3.245964 4.756963,7.419568 4.756963,12.520872 0,17.932368 -10.817248,21.873576 -21.175424,23.033674 1.688392,1.468338 3.145367,4.250462 3.145367,8.656482 0,6.26043 -0.07602,11.28489 -0.07602,12.83007 0,1.23693 0.844214,2.70624 3.145405,2.24237 18.413282,-6.18455 31.686362,-23.652099 31.686362,-44.288782 0.076,-25.816694 -20.71538,-46.684805 -46.263661,-46.684805 z"
         fill="#24292f"
         id="path27742"
         style="display:inline;fill:#000000;stroke-width:0.948552" />
      <circle
         style="display:inline;fill:none;stroke:#000000;stroke-width:4.13463;stroke-miterlimit:4;stroke-dasharray:none"
         id="circle27744"
         cx="72.760414"
         cy="72.760414"
         r="63.417061" />
    </g>
  </g>
</svg>
