<?xml version="1.0" encoding="UTF-8" standalone="no"?>
<!-- Created with Inkscape (http://www.inkscape.org/) -->

<svg
   width="550"
   height="550"
   viewBox="0 0 145.52083 145.52084"
   version="1.1"
   id="svg27761"
   inkscape:version="1.1.1 (3bf5ae0d25, 2021-09-20)"
   sodipodi:docname="website.svg"
   xmlns:inkscape="http://www.inkscape.org/namespaces/inkscape"
   xmlns:sodipodi="http://sodipodi.sourceforge.net/DTD/sodipodi-0.dtd"
   xmlns="http://www.w3.org/2000/svg"
   xmlns:svg="http://www.w3.org/2000/svg">
  <sodipodi:namedview
     id="namedview27763"
     pagecolor="#505050"
     bordercolor="#eeeeee"
     borderopacity="1"
     inkscape:pageshadow="0"
     inkscape:pageopacity="0"
     inkscape:pagecheckerboard="0"
     inkscape:document-units="mm"
     showgrid="false"
     units="px"
     inkscape:zoom="0.44275393"
     inkscape:cx="317.33202"
     inkscape:cy="202.14389"
     inkscape:window-width="1366"
     inkscape:window-height="705"
     inkscape:window-x="-8"
     inkscape:window-y="-8"
     inkscape:window-maximized="1"
     inkscape:current-layer="g27851" />
  <defs
     id="defs27758">
    <clipPath
       clipPathUnits="userSpaceOnUse"
       id="clipPath27861">
      <path
         d="M 0,500 H 500 V 0 H 0 Z"
         id="path27859" />
    </clipPath>
    <clipPath
       clipPathUnits="userSpaceOnUse"
       id="clipPath27881">
      <path
         d="M 0,500 H 500 V 0 H 0 Z"
         id="path27879" />
    </clipPath>
    <clipPath
       clipPathUnits="userSpaceOnUse"
       id="clipPath28053">
      <path
         d="M 0,500 H 500 V 0 H 0 Z"
         id="path28051" />
    </clipPath>
  </defs>
  <g
     inkscape:label="Layer 1"
     inkscape:groupmode="layer"
     id="layer1">
    <g
       id="g27851"
       inkscape:label="454732-PF8Y2S-49"
       transform="matrix(0.35277777,0,0,-0.35277777,16.980608,236.69444)"
       style="display:inline">
      <g
         id="g1268">
        <g
           id="g27875"
           style="display:inline;fill:#000000"
           transform="matrix(1.5388625,0,0,1.5388625,-226.59909,42.30213)">
          <g
             id="g27877"
             clip-path="url(#clipPath27881)"
             style="fill:#000000">
            <g
               id="g27883"
               transform="translate(251.1328,201.4365)"
               style="fill:#000000">
              <path
                 d="m 0,0 c -1.965,0 -3.573,1.576 -3.604,3.547 -0.03,1.988 1.558,3.63 3.548,3.661 16.761,0.267 32.63,6.832 44.684,18.484 1.438,1.381 3.714,1.342 5.097,-0.088 C 51.109,24.175 51.07,21.893 49.64,20.509 36.263,7.582 18.654,0.298 0.057,0 Z"
                 style="fill:#000000;fill-opacity:1;fill-rule:nonzero;stroke:none"
                 id="path27885" />
            </g>
            <g
               id="g27887"
               transform="translate(248.8667,340.3262)"
               style="fill:#000000">
              <path
                 d="m 0,0 c -1.965,0 -3.573,1.578 -3.604,3.55 -0.028,1.991 1.56,3.628 3.55,3.658 l 0.33,0.018 c 0.285,0.021 0.569,0.038 0.859,0.038 1.99,0 3.604,-1.613 3.604,-3.604 0,-1.991 -1.614,-3.604 -3.604,-3.604 L 0.789,0.037 C 0.543,0.02 0.301,0.004 0.054,0 Z"
                 style="fill:#000000;fill-opacity:1;fill-rule:nonzero;stroke:none"
                 id="path27889" />
            </g>
            <g
               id="g27891"
               transform="translate(180.498,270.8789)"
               style="fill:#000000">
              <path
                 d="m 0,0 c -1.991,0 -3.604,1.613 -3.604,3.604 0,20.99 9.097,41.008 24.958,54.921 1.498,1.317 3.772,1.163 5.084,-0.332 C 27.75,56.697 27.604,54.42 26.106,53.108 11.806,40.562 3.604,22.52 3.604,3.604 3.604,1.613 1.991,0 0,0"
                 style="fill:#000000;fill-opacity:1;fill-rule:nonzero;stroke:none"
                 id="path27893" />
            </g>
            <g
               id="g27895"
               transform="translate(248.8667,201.4365)"
               style="fill:#000000">
              <path
                 d="m 0,0 h -0.056 c -18.6,0.298 -36.206,7.582 -49.58,20.509 -1.431,1.384 -1.47,3.666 -0.085,5.095 1.383,1.43 3.663,1.469 5.096,0.088 C -32.574,14.04 -16.705,7.475 0.056,7.208 2.047,7.177 3.635,5.535 3.604,3.547 3.573,1.576 1.965,0 0,0"
                 style="fill:#000000;fill-opacity:1;fill-rule:nonzero;stroke:none"
                 id="path27897" />
            </g>
            <g
               id="g27899"
               transform="translate(201.7363,220.9326)"
               style="fill:#000000">
              <path
                 d="m 0,0 c -0.901,0 -1.805,0.337 -2.506,1.013 -14.405,13.92 -22.336,32.579 -22.336,52.537 0,1.991 1.613,3.604 3.604,3.604 1.99,0 3.604,-1.613 3.604,-3.604 0,-17.986 7.152,-34.804 20.14,-47.354 C 3.936,4.812 3.976,2.531 2.59,1.1 1.883,0.367 0.943,0 0,0"
                 style="fill:#000000;fill-opacity:1;fill-rule:nonzero;stroke:none"
                 id="path27901" />
            </g>
            <g
               id="g27903"
               transform="translate(250.0015,201.377)"
               style="fill:#000000">
              <path
                 d="M 0,0 C -0.298,0 -0.591,0.02 -0.884,0.039 L -1.213,0.06 c -1.991,0.044 -3.568,1.694 -3.526,3.682 0.045,1.962 1.65,3.526 3.601,3.526 h 0.082 c 0.237,-0.006 0.468,-0.023 0.699,-0.04 L 0,7.208 C 1.991,7.208 3.604,5.595 3.604,3.604 3.604,1.613 1.991,0 0,0"
                 style="fill:#000000;fill-opacity:1;fill-rule:nonzero;stroke:none"
                 id="path27905" />
            </g>
            <g
               id="g27907"
               transform="translate(250.0015,201.377)"
               style="fill:#000000">
              <path
                 d="m 0,0 c -1.991,0 -3.604,1.613 -3.604,3.604 0,1.991 1.613,3.604 3.604,3.604 l 0.354,0.02 C 0.585,7.245 0.816,7.262 1.053,7.268 2.928,7.262 4.691,5.735 4.736,3.742 4.778,1.754 3.202,0.104 1.21,0.06 L 0.884,0.039 C 0.591,0.02 0.298,0 0,0"
                 style="fill:#000000;fill-opacity:1;fill-rule:nonzero;stroke:none"
                 id="path27909" />
            </g>
            <g
               id="g27911"
               transform="translate(295.7695,323.0918)"
               style="fill:#000000">
              <path
                 d="m 0,0 c -0.842,0 -1.689,0.294 -2.374,0.895 -11.724,10.286 -26.754,16.088 -42.321,16.339 -1.988,0.033 -3.576,1.673 -3.545,3.662 0.033,1.991 1.624,3.514 3.663,3.546 17.273,-0.278 33.95,-6.718 46.956,-18.13 C 3.877,5 4.023,2.723 2.711,1.228 1.999,0.415 1.002,0 0,0"
                 style="fill:#000000;fill-opacity:1;fill-rule:nonzero;stroke:none"
                 id="path27913" />
            </g>
            <g
               id="g27915"
               transform="translate(204.231,323.0918)"
               style="fill:#000000">
              <path
                 d="M 0,0 C -1.002,0 -1.999,0.415 -2.711,1.228 -4.023,2.723 -3.877,5 -2.379,6.312 10.626,17.724 27.303,24.164 44.577,24.442 46.66,24.521 48.206,22.888 48.24,20.896 48.271,18.907 46.683,17.267 44.695,17.234 29.127,16.983 14.098,11.181 2.374,0.895 1.689,0.294 0.842,0 0,0"
                 style="fill:#000000;fill-opacity:1;fill-rule:nonzero;stroke:none"
                 id="path27917" />
            </g>
            <g
               id="g27919"
               transform="translate(251.1328,340.3262)"
               style="fill:#000000">
              <path
                 d="m 0,0 h -0.053 c -0.248,0.004 -0.49,0.02 -0.735,0.037 l -0.343,0.019 c -1.991,0 -3.604,1.613 -3.604,3.604 0,1.991 1.613,3.604 3.604,3.604 0.29,0 0.574,-0.017 0.859,-0.038 L 0.054,7.208 C 2.045,7.178 3.633,5.541 3.604,3.55 3.573,1.578 1.966,0 0,0"
                 style="fill:#000000;fill-opacity:1;fill-rule:nonzero;stroke:none"
                 id="path27921" />
            </g>
            <g
               id="g27923"
               transform="translate(298.2666,220.9326)"
               style="fill:#000000">
              <path
                 d="m 0,0 c -0.943,0 -1.884,0.367 -2.591,1.1 -1.385,1.431 -1.346,3.712 0.085,5.096 12.985,12.548 20.138,29.366 20.138,47.354 0,18.916 -8.202,36.958 -22.503,49.504 -1.498,1.313 -1.645,3.589 -0.332,5.086 1.309,1.494 3.587,1.648 5.085,0.332 C 15.742,94.558 24.839,74.541 24.839,53.55 24.839,33.59 16.908,14.932 2.506,1.013 1.805,0.337 0.901,0 0,0"
                 style="fill:#000000;fill-opacity:1;fill-rule:nonzero;stroke:none"
                 id="path27925" />
            </g>
            <g
               id="g27927"
               transform="translate(224.9087,311.5591)"
               style="fill:#000000">
              <path
                 d="m 0,0 c -0.591,0 -1.191,0.145 -1.746,0.453 -1.74,0.966 -2.368,3.159 -1.402,4.9 6.341,11.428 15.387,21.495 26.16,29.113 1.616,1.15 3.877,0.767 5.023,-0.862 1.149,-1.625 0.763,-3.874 -0.862,-5.023 C 17.279,21.584 8.973,12.342 3.153,1.855 2.495,0.668 1.267,0 0,0"
                 style="fill:#000000;fill-opacity:1;fill-rule:nonzero;stroke:none"
                 id="path27929" />
            </g>
            <g
               id="g27931"
               transform="translate(250.0044,339.4785)"
               style="fill:#000000">
              <path
                 d="m 0,0 c -1.132,0 -2.244,0.531 -2.948,1.526 -1.146,1.626 -0.76,3.874 0.867,5.022 l 0.4,0.303 C -1.431,7.046 -1.177,7.24 -0.915,7.42 0.726,8.552 2.967,8.136 4.096,6.496 5.226,4.855 4.812,2.611 3.173,1.482 3.024,1.38 2.88,1.267 2.737,1.156 2.517,0.985 2.3,0.818 2.075,0.66 1.444,0.214 0.718,0 0,0"
                 style="fill:#000000;fill-opacity:1;fill-rule:nonzero;stroke:none"
                 id="path27933" />
            </g>
            <g
               id="g27935"
               transform="translate(223.0645,233.8779)"
               style="fill:#000000">
              <path
                 d="m 0,0 c -1.329,0 -2.61,0.739 -3.235,2.013 -6.003,12.191 -9.047,25.175 -9.047,38.592 0,1.991 1.614,3.604 3.604,3.604 1.991,0 3.604,-1.613 3.604,-3.604 0,-12.303 2.793,-24.216 8.303,-35.408 C 4.111,3.411 3.376,1.251 1.588,0.371 1.079,0.119 0.535,0 0,0"
                 style="fill:#000000;fill-opacity:1;fill-rule:nonzero;stroke:none"
                 id="path27937" />
            </g>
            <g
               id="g27939"
               transform="translate(251.1309,201.4365)"
               style="fill:#000000">
              <path
                 d="m 0,0 c -0.696,0 -1.397,0.199 -2.017,0.619 -0.278,0.189 -0.546,0.392 -0.81,0.597 L -3.208,1.503 C -4.835,2.652 -5.221,4.901 -4.075,6.526 -2.923,8.15 -0.676,8.539 0.948,7.394 1.168,7.238 1.379,7.075 1.591,6.912 1.731,6.802 1.872,6.689 2.021,6.588 3.671,5.474 4.102,3.234 2.987,1.585 2.292,0.555 1.157,0 0,0"
                 style="fill:#000000;fill-opacity:1;fill-rule:nonzero;stroke:none"
                 id="path27941" />
            </g>
            <g
               id="g27943"
               transform="translate(249.9985,202.2812)"
               style="fill:#000000">
              <path
                 d="m 0,0 c -0.721,0 -1.447,0.214 -2.078,0.661 -11.921,8.43 -21.635,19.823 -28.094,32.95 -0.878,1.785 -0.141,3.946 1.644,4.825 1.785,0.879 3.945,0.142 4.826,-1.643 C -17.775,24.742 -8.858,14.283 2.083,6.546 3.708,5.397 4.094,3.147 2.945,1.522 2.244,0.529 1.129,0 0,0"
                 style="fill:#000000;fill-opacity:1;fill-rule:nonzero;stroke:none"
                 id="path27945" />
            </g>
            <g
               id="g27947"
               transform="translate(214.3867,270.8789)"
               style="fill:#000000">
              <path
                 d="m 0,0 c -1.991,0 -3.604,1.613 -3.604,3.604 0,14.809 3.795,29.481 10.978,42.429 0.96,1.739 3.159,2.367 4.899,1.403 1.74,-0.966 2.368,-3.159 1.402,-4.9 C 7.087,30.655 3.604,17.193 3.604,3.604 3.604,1.613 1.991,0 0,0"
                 style="fill:#000000;fill-opacity:1;fill-rule:nonzero;stroke:none"
                 id="path27949" />
            </g>
            <g
               id="g27951"
               transform="translate(224.9116,311.5576)"
               style="fill:#000000">
              <path
                 d="m 0,0 c -0.408,0 -0.822,0.07 -1.23,0.217 -7.907,2.869 -15.205,6.94 -21.698,12.1 -1.557,1.239 -1.816,3.505 -0.577,5.064 1.242,1.558 3.505,1.814 5.066,0.578 C -12.561,13.285 -5.944,9.596 1.23,6.994 3.1,6.314 4.065,4.247 3.387,2.376 2.855,0.911 1.473,0 0,0"
                 style="fill:#000000;fill-opacity:1;fill-rule:nonzero;stroke:none"
                 id="path27953" />
            </g>
            <g
               id="g27955"
               transform="translate(275.0889,311.5576)"
               style="fill:#000000">
              <path
                 d="m 0,0 c -1.473,0 -2.855,0.911 -3.388,2.376 -0.678,1.871 0.287,3.938 2.158,4.618 7.173,2.602 13.791,6.291 19.669,10.965 1.563,1.238 3.827,0.98 5.065,-0.578 1.239,-1.559 0.98,-3.825 -0.577,-5.064 C 16.435,7.157 9.137,3.086 1.23,0.217 0.822,0.07 0.408,0 0,0"
                 style="fill:#000000;fill-opacity:1;fill-rule:nonzero;stroke:none"
                 id="path27957" />
            </g>
            <g
               id="g27959"
               transform="translate(250.0015,307.082)"
               style="fill:#000000">
              <path
                 d="m 0,0 c -1.991,0 -3.604,1.613 -3.604,3.604 0,1.991 1.613,3.604 3.604,3.604 8.036,0 16.063,1.433 23.86,4.261 1.866,0.676 3.938,-0.288 4.614,-2.159 C 29.153,7.439 28.187,5.371 26.315,4.692 17.73,1.578 8.875,0 0,0"
                 style="fill:#000000;fill-opacity:1;fill-rule:nonzero;stroke:none"
                 id="path27961" />
            </g>
            <g
               id="g27963"
               transform="translate(250.0015,307.082)"
               style="fill:#000000">
              <path
                 d="m 0,0 c -8.877,0 -17.733,1.578 -26.317,4.692 -1.873,0.679 -2.839,2.747 -2.16,4.618 0.676,1.871 2.748,2.835 4.615,2.159 C -16.066,8.641 -8.036,7.208 0,7.208 1.991,7.208 3.604,5.595 3.604,3.604 3.604,1.613 1.991,0 0,0"
                 style="fill:#000000;fill-opacity:1;fill-rule:nonzero;stroke:none"
                 id="path27965" />
            </g>
            <g
               id="g27967"
               transform="translate(298.2637,220.9326)"
               style="fill:#000000">
              <path
                 d="m 0,0 c -0.836,0 -1.678,0.292 -2.362,0.885 -6.034,5.246 -12.859,9.389 -20.284,12.312 -1.852,0.729 -2.762,2.822 -2.033,4.674 0.727,1.852 2.819,2.758 4.674,2.032 C -11.817,16.68 -4.288,12.11 2.368,6.324 3.869,5.018 4.029,2.741 2.723,1.239 2.011,0.42 1.008,0 0,0"
                 style="fill:#000000;fill-opacity:1;fill-rule:nonzero;stroke:none"
                 id="path27969" />
            </g>
            <g
               id="g27971"
               transform="translate(276.9385,233.8779)"
               style="fill:#000000">
              <path
                 d="m 0,0 c -0.439,0 -0.887,0.081 -1.32,0.252 -8.267,3.252 -16.886,4.901 -25.617,4.901 -1.991,0 -3.604,1.614 -3.604,3.605 0,1.99 1.613,3.603 3.604,3.603 9.638,0 19.146,-1.817 28.257,-5.403 C 3.17,6.23 4.082,4.138 3.354,2.286 2.796,0.867 1.436,0 0,0"
                 style="fill:#000000;fill-opacity:1;fill-rule:nonzero;stroke:none"
                 id="path27973" />
            </g>
            <g
               id="g27975"
               transform="translate(223.0615,233.8779)"
               style="fill:#000000">
              <path
                 d="m 0,0 c -1.436,0 -2.796,0.867 -3.353,2.286 -0.73,1.852 0.183,3.944 2.033,4.672 9.111,3.586 18.619,5.403 28.26,5.403 1.991,0 3.604,-1.613 3.604,-3.603 0,-1.991 -1.613,-3.605 -3.604,-3.605 C 18.206,5.153 9.587,3.504 1.321,0.252 0.887,0.081 0.439,0 0,0"
                 style="fill:#000000;fill-opacity:1;fill-rule:nonzero;stroke:none"
                 id="path27977" />
            </g>
            <g
               id="g27979"
               transform="translate(201.7393,220.9326)"
               style="fill:#000000">
              <path
                 d="m 0,0 c -1.008,0 -2.011,0.42 -2.723,1.239 -1.306,1.502 -1.146,3.779 0.355,5.085 6.65,5.783 14.177,10.353 22.37,13.579 1.85,0.727 3.945,-0.179 4.674,-2.032 0.729,-1.851 -0.18,-3.945 -2.033,-4.674 C 15.215,10.271 8.39,6.13 2.362,0.885 1.681,0.292 0.836,0 0,0"
                 style="fill:#000000;fill-opacity:1;fill-rule:nonzero;stroke:none"
                 id="path27981" />
            </g>
            <g
               id="g27983"
               transform="translate(285.6133,270.8789)"
               style="fill:#000000">
              <path
                 d="m 0,0 c -1.99,0 -3.604,1.613 -3.604,3.604 0,13.589 -3.483,27.051 -10.072,38.932 -0.966,1.741 -0.338,3.934 1.403,4.9 1.743,0.964 3.936,0.336 4.899,-1.403 C -0.191,33.085 3.604,18.413 3.604,3.604 3.604,1.613 1.99,0 0,0"
                 style="fill:#000000;fill-opacity:1;fill-rule:nonzero;stroke:none"
                 id="path27985" />
            </g>
            <g
               id="g27987"
               transform="translate(249.9985,339.4785)"
               style="fill:#000000">
              <path
                 d="M 0,0 C -0.709,0 -1.427,0.21 -2.055,0.645 -2.297,0.813 -2.528,0.991 -2.762,1.171 -2.897,1.277 -3.032,1.385 -3.176,1.482 -4.814,2.611 -5.229,4.855 -4.1,6.496 -2.973,8.136 -0.732,8.551 0.912,7.42 1.166,7.245 1.411,7.057 1.656,6.867 L 2.061,6.563 C 3.694,5.426 4.097,3.18 2.962,1.546 2.261,0.539 1.14,0 0,0"
                 style="fill:#000000;fill-opacity:1;fill-rule:nonzero;stroke:none"
                 id="path27989" />
            </g>
            <g
               id="g27991"
               transform="translate(248.8696,201.4365)"
               style="fill:#000000">
              <path
                 d="m 0,0 c -1.157,0 -2.292,0.555 -2.987,1.585 -1.116,1.649 -0.685,3.889 0.966,5.003 0.14,0.096 0.275,0.203 0.41,0.308 0.226,0.173 0.451,0.348 0.685,0.511 1.638,1.135 3.88,0.736 5.017,-0.9 C 5.226,4.873 4.823,2.627 3.19,1.489 L 2.804,1.199 C 2.548,0.999 2.287,0.802 2.016,0.619 1.396,0.199 0.695,0 0,0"
                 style="fill:#000000;fill-opacity:1;fill-rule:nonzero;stroke:none"
                 id="path27993" />
            </g>
            <g
               id="g27995"
               transform="translate(276.9355,233.8779)"
               style="fill:#000000">
              <path
                 d="m 0,0 c -0.535,0 -1.078,0.119 -1.588,0.371 -1.788,0.88 -2.522,3.04 -1.641,4.826 5.509,11.192 8.302,23.105 8.302,35.408 0,1.991 1.614,3.604 3.605,3.604 1.99,0 3.603,-1.613 3.603,-3.604 C 12.281,27.188 9.238,14.204 3.235,2.013 2.61,0.739 1.329,0 0,0"
                 style="fill:#000000;fill-opacity:1;fill-rule:nonzero;stroke:none"
                 id="path27997" />
            </g>
            <g
               id="g27999"
               transform="translate(250.0044,202.2812)"
               style="fill:#000000">
              <path
                 d="m 0,0 c -1.129,0 -2.244,0.529 -2.945,1.522 -1.149,1.625 -0.763,3.875 0.862,5.024 10.938,7.738 19.855,18.197 25.782,30.247 0.882,1.787 3.041,2.522 4.826,1.643 1.785,-0.879 2.522,-3.04 1.644,-4.825 C 23.71,20.486 13.997,9.091 2.078,0.661 1.447,0.214 0.721,0 0,0"
                 style="fill:#000000;fill-opacity:1;fill-rule:nonzero;stroke:none"
                 id="path28001" />
            </g>
            <g
               id="g28003"
               transform="translate(275.0918,311.5591)"
               style="fill:#000000">
              <path
                 d="m 0,0 c -1.268,0 -2.498,0.668 -3.154,1.855 -5.814,10.484 -14.12,19.725 -24.017,26.726 -1.625,1.149 -2.011,3.398 -0.862,5.023 1.149,1.629 3.405,2.012 5.023,0.862 C -12.234,26.844 -3.188,16.777 3.147,5.353 4.113,3.611 3.485,1.417 1.745,0.452 1.19,0.145 0.591,0 0,0"
                 style="fill:#000000;fill-opacity:1;fill-rule:nonzero;stroke:none"
                 id="path28005" />
            </g>
            <g
               id="g28007"
               transform="translate(214.3867,270.8789)"
               style="fill:#000000">
              <path
                 d="m 0,0 h -33.889 c -1.99,0 -3.604,1.613 -3.604,3.604 0,1.991 1.614,3.604 3.604,3.604 H 0 C 1.991,7.208 3.604,5.595 3.604,3.604 3.604,1.613 1.991,0 0,0"
                 style="fill:#000000;fill-opacity:1;fill-rule:nonzero;stroke:none"
                 id="path28009" />
            </g>
            <g
               id="g28011"
               transform="translate(285.6133,270.8789)"
               style="fill:#000000">
              <path
                 d="m 0,0 h -35.612 c -1.991,0 -3.604,1.613 -3.604,3.604 0,1.991 1.613,3.604 3.604,3.604 H 0 C 1.99,7.208 3.604,5.595 3.604,3.604 3.604,1.613 1.99,0 0,0"
                 style="fill:#000000;fill-opacity:1;fill-rule:nonzero;stroke:none"
                 id="path28013" />
            </g>
            <g
               id="g28015"
               transform="translate(250.0015,270.8789)"
               style="fill:#000000">
              <path
                 d="m 0,0 h -35.615 c -1.99,0 -3.604,1.613 -3.604,3.604 0,1.991 1.614,3.604 3.604,3.604 H 0 C 1.991,7.208 3.604,5.595 3.604,3.604 3.604,1.613 1.991,0 0,0"
                 style="fill:#000000;fill-opacity:1;fill-rule:nonzero;stroke:none"
                 id="path28017" />
            </g>
            <g
               id="g28019"
               transform="translate(317.4492,270.8789)"
               style="fill:#000000">
              <path
                 d="m 0,0 h -31.836 c -1.99,0 -3.604,1.613 -3.604,3.604 0,1.991 1.614,3.604 3.604,3.604 H 0 C 1.991,7.208 3.604,5.595 3.604,3.604 3.604,1.613 1.991,0 0,0"
                 style="fill:#000000;fill-opacity:1;fill-rule:nonzero;stroke:none"
                 id="path28021" />
            </g>
            <g
               id="g28023"
               transform="translate(250.0015,307.082)"
               style="fill:#000000">
              <path
                 d="M 0,0 C -1.991,0 -3.604,1.613 -3.604,3.604 V 36 c 0,1.991 1.613,3.604 3.604,3.604 1.991,0 3.604,-1.613 3.604,-3.604 V 3.604 C 3.604,1.613 1.991,0 0,0"
                 style="fill:#000000;fill-opacity:1;fill-rule:nonzero;stroke:none"
                 id="path28025" />
            </g>
            <g
               id="g28027"
               transform="translate(250.0015,270.8789)"
               style="fill:#000000">
              <path
                 d="m 0,0 c -1.991,0 -3.604,1.613 -3.604,3.604 v 36.203 c 0,1.991 1.613,3.604 3.604,3.604 1.991,0 3.604,-1.613 3.604,-3.604 V 3.604 C 3.604,1.613 1.991,0 0,0"
                 style="fill:#000000;fill-opacity:1;fill-rule:nonzero;stroke:none"
                 id="path28029" />
            </g>
            <g
               id="g28031"
               transform="translate(250.0015,202.2812)"
               style="fill:#000000">
              <path
                 d="m 0,0 c -1.991,0 -3.604,1.613 -3.604,3.604 v 36.75 c 0,1.991 1.613,3.604 3.604,3.604 1.991,0 3.604,-1.613 3.604,-3.604 V 3.604 C 3.604,1.613 1.991,0 0,0"
                 style="fill:#000000;fill-opacity:1;fill-rule:nonzero;stroke:none"
                 id="path28033" />
            </g>
            <g
               id="g28035"
               transform="translate(250.0015,339.4785)"
               style="fill:#000000">
              <path
                 d="m 0,0 c -1.991,0 -3.604,1.613 -3.604,3.604 v 0.904 c 0,1.991 1.613,3.604 3.604,3.604 1.991,0 3.604,-1.613 3.604,-3.604 V 3.604 C 3.604,1.613 1.991,0 0,0"
                 style="fill:#000000;fill-opacity:1;fill-rule:nonzero;stroke:none"
                 id="path28037" />
            </g>
            <g
               id="g28039"
               transform="translate(250.0015,239.0312)"
               style="fill:#000000">
              <path
                 d="m 0,0 c -1.991,0 -3.604,1.613 -3.604,3.604 v 31.848 c 0,1.99 1.613,3.604 3.604,3.604 1.991,0 3.604,-1.614 3.604,-3.604 V 3.604 C 3.604,1.613 1.991,0 0,0"
                 style="fill:#000000;fill-opacity:1;fill-rule:nonzero;stroke:none"
                 id="path28041" />
            </g>
            <g
               id="g28043"
               transform="translate(250.0015,201.377)"
               style="fill:#000000">
              <path
                 d="m 0,0 c -1.991,0 -3.604,1.613 -3.604,3.604 v 0.904 c 0,1.99 1.613,3.604 3.604,3.604 1.991,0 3.604,-1.614 3.604,-3.604 V 3.604 C 3.604,1.613 1.991,0 0,0"
                 style="fill:#000000;fill-opacity:1;fill-rule:nonzero;stroke:none"
                 id="path28045" />
            </g>
          </g>
        </g>
        <circle
           style="fill:none;stroke:#000000;stroke-width:8.50394;stroke-miterlimit:4;stroke-dasharray:none"
           id="path28483"
           cx="158.116"
           cy="-464.69489"
           r="181.65991"
           transform="scale(1,-1)" />
      </g>
    </g>
  </g>
</svg>
