<?xml version="1.0" encoding="UTF-8" standalone="no"?>
<!-- Created with Inkscape (http://www.inkscape.org/) -->

<svg
   width="207.63332mm"
   height="207.63332mm"
   viewBox="0 0 207.63332 207.63332"
   version="1.1"
   id="svg954"
   inkscape:version="1.1.1 (3bf5ae0d25, 2021-09-20)"
   sodipodi:docname="linkedin.svg"
   xmlns:inkscape="http://www.inkscape.org/namespaces/inkscape"
   xmlns:sodipodi="http://sodipodi.sourceforge.net/DTD/sodipodi-0.dtd"
   xmlns="http://www.w3.org/2000/svg"
   xmlns:svg="http://www.w3.org/2000/svg">
  <sodipodi:namedview
     id="namedview956"
     pagecolor="#505050"
     bordercolor="#eeeeee"
     borderopacity="1"
     inkscape:pageshadow="0"
     inkscape:pageopacity="0"
     inkscape:pagecheckerboard="0"
     inkscape:document-units="mm"
     showgrid="false"
     fit-margin-top="0"
     fit-margin-left="0"
     fit-margin-right="0"
     fit-margin-bottom="0"
     inkscape:zoom="0.44275393"
     inkscape:cx="347.823"
     inkscape:cy="319.59061"
     inkscape:window-width="1366"
     inkscape:window-height="705"
     inkscape:window-x="-8"
     inkscape:window-y="-8"
     inkscape:window-maximized="1"
     inkscape:current-layer="layer1" />
  <defs
     id="defs951" />
  <g
     inkscape:label="Layer 1"
     inkscape:groupmode="layer"
     id="layer1"
     transform="translate(-99.362415,-64.10487)">
    <g
       id="g1057"
       transform="translate(99.362415,64.10487)">
      <g
         id="layer2"
         inkscape:label="Layer 2">
        <path
           id="rect1286"
           style="fill:#ffffff;stroke-width:1.04104"
           transform="scale(0.26458333)"
           d="m 767.32617,15.794922 c 0.46886,0.452509 0.81607,1.018146 1.26953,1.486328 0.15597,-0.481698 0.32923,-0.974441 0.52539,-1.480469 -0.59835,-0.0024 -1.1966,-0.0013 -1.79492,-0.0059 z m 2.85938,0.0078 c -0.008,0.110791 -0.0179,0.222652 -0.006,0.324219 0.0197,0.165421 0.0145,-0.05847 0.01,-0.324219 -0.001,-2e-6 -0.003,3e-6 -0.004,0 z M 0.59179688,48.171875 c -0.023801,0.0042 -0.0366075,0.0056 -0.0605469,0.0098 -0.0719746,0.238175 -0.14435302,0.476209 -0.21484375,0.714843 0.0287423,-0.01085 0.0572696,-0.02221 0.0859375,-0.0332 0.0671173,-0.250168 0.13657771,-0.46454 0.18945313,-0.691406 z M 179.02148,112.10742 c -37.31094,0 -67.43945,30.3057 -67.43945,67.44141 0,37.13582 30.12851,67.43945 67.43945,67.43945 37.31094,0 67.44141,-30.12845 67.44141,-67.43945 0,-37.13571 -30.30564,-67.44141 -67.44141,-67.44141 z m 354.54297,176.7461 c -56.57949,0 -94.59169,31.00524 -110.18164,60.43359 h -1.57617 V 298.13672 H 310.22461 V 672.64844 H 426.53516 V 487.32031 c 0,-48.87212 9.2843,-96.16797 69.89257,-96.16797 59.55731,0 60.4336,55.87843 60.4336,99.32032 v 182.17578 h 116.3125 V 467.34961 c 0,-100.89721 -21.89599,-178.49609 -139.60938,-178.49609 z m -412.69726,9.2832 v 374.51172 h 116.31054 0.17579 V 298.13672 Z M 2.265625,744.68359 c -0.4133297,0.0427 -0.8196857,0.0986 -1.2304688,0.14453 C 0.57074786,745.16564 0.39944242,745.26932 0,745.55664 v 2.01563 c 0.18833507,0.58811 0.36283875,1.18184 0.56640625,1.76367 0.0427905,0.17597 0.0734894,0.31648 0.11523437,0.48828 0.57772018,0.0285 1.09683568,0.0721 1.58203128,0.12695 -0.00642,-1.50348 -0.020569,-3.00658 0.00391,-4.50976 0.00355,-0.25267 -0.00448,-0.50518 -0.00195,-0.75782 z m 0.4921875,4.83203 c -0.1009003,0.13899 -0.1608562,0.27703 -0.2714844,0.4629 0.058178,0.008 0.1196002,0.0153 0.1757813,0.0234 0.035304,-0.15749 0.056388,-0.33138 0.095703,-0.48633 z m -0.4941406,0.88086 c -0.038461,0.0853 -0.1242264,0.19877 -0.140625,0.26368 -0.056898,0.22519 -0.1430382,0.7042 -0.2148438,1.01953 0.1215601,-0.25818 0.2346618,-0.51992 0.3535157,-0.7793 -4.991e-4,-0.16799 0.00261,-0.33591 0.00195,-0.50391 z" />
      </g>
      <g
         inkscape:label="Layer 1"
         id="layer1-6"
         transform="translate(-1.1833385,-44.683334)" />
    </g>
  </g>
</svg>
